<?xml version="1.0" encoding="UTF-8"?>
<!DOCTYPE svg PUBLIC "-//W3C//DTD SVG 1.1//EN" "http://www.w3.org/Graphics/SVG/1.1/DTD/svg11.dtd">
<!-- Creator: CorelDRAW 2019 (64-Bit) -->
<svg xmlns="http://www.w3.org/2000/svg" xml:space="preserve" width="215.9mm" height="279.4mm" version="1.1" style="shape-rendering:geometricPrecision; text-rendering:geometricPrecision; image-rendering:optimizeQuality; fill-rule:evenodd; clip-rule:evenodd"
viewBox="0 0 21590 27940"
 xmlns:xlink="http://www.w3.org/1999/xlink"
 xmlns:xodm="http://www.corel.com/coreldraw/odm/2003">
 <defs>
  <style type="text/css">
   <![CDATA[
    .str0 {stroke:#408BEF;stroke-width:7.62;stroke-miterlimit:22.9256}
    .str3 {stroke:#E6E7E8;stroke-width:7.62;stroke-miterlimit:22.9256}
    .str1 {stroke:#FAB340;stroke-width:7.62;stroke-miterlimit:22.9256}
    .str2 {stroke:#FEFEFE;stroke-width:7.62;stroke-miterlimit:22.9256}
    .fil24 {fill:none}
    .fil6 {fill:#011826}
    .fil5 {fill:#04557C}
    .fil0 {fill:#056391}
    .fil2 {fill:#408BEF}
    .fil11 {fill:#554D51}
    .fil9 {fill:#684C49}
    .fil23 {fill:#724A43}
    .fil18 {fill:#788160}
    .fil15 {fill:#794A3F}
    .fil14 {fill:#84493A}
    .fil16 {fill:#855F22}
    .fil13 {fill:#8D8D66}
    .fil10 {fill:#8E6525}
    .fil19 {fill:#926826}
    .fil20 {fill:#956A27}
    .fil12 {fill:#9A6E28}
    .fil22 {fill:#A5762B}
    .fil21 {fill:#AC7B2C}
    .fil7 {fill:#ACA289}
    .fil8 {fill:#B3A484}
    .fil17 {fill:#B5812F}
    .fil4 {fill:#C03708}
    .fil3 {fill:#DF400A}
    .fil1 {fill:#FAB340}
   ]]>
  </style>
 </defs>
 <g id="Capa_x0020_1">
  <metadata id="CorelCorpID_0Corel-Layer"/>
  <g id="_3063733187904">
   <path class="fil0" d="M4819.79 8878.7l64.03 72.81 134.66 -203.37 6321.2 3653.63 212.5 87.8 6887.21 3515.96 85.96 0c60.34,-359.55 465.25,-929.92 605.18,-1318.92 133.08,-369.85 334.69,-1389.48 428.18,-1577.37 -214.51,-10074.6 -13512.64,-8396.63 -14738.92,-4230.54z"/>
   <path class="fil1" d="M3610.42 11818.26l-50.13 461.66 -15.99 766.96 73.15 358.21 71.31 150.9 11.97 251.84 55.48 101.68 5.7 128.39 57.83 105.7 16.9 167.22 59.68 102.02 74.32 271 65.28 88.13 74.15 268.66 71.06 77.08 -1.01 64.03c99.35,0 72.48,-23.69 72.48,79.17l-35.07 87.46c284.98,201.7 523,733.32 731.65,1042.07l92.73 78.84 95 206.47 817.01 790.73 1133.8 788.31 646.19 303.98 927.49 355.03 1162.34 318.7c191.07,24.69 386.5,51.14 579.07,90.39 278.28,56.66 284.73,14.73 384.41,182.45l3.01 923.47 627.87 70.89 -21.34 -2765.06c-35.99,-308.41 -20.84,-1311.31 93.06,-1541.05l-5.44 -1827.7c-36.49,-338.7 -58.5,-886.65 69.22,-1169.03l-1.42 -707.29 -266.07 -77.5 -284.13 8.37 -272.59 -81.35 -273.85 2.09 -207.98 -54.99 -105.87 0.51 -64.11 -11.39c-958.21,-96.66 -5968.43,-862.46 -6437.28,-761.02l-29.88 303.97z"/>
   <path class="fil2" d="M11553.6 13196.86c18.75,356.79 51.05,867.9 -69.22,1169.03l5.44 1827.7c24.28,366.83 50.22,1263.69 -93.06,1541.05l21.34 2765.06 577.9 -70.89 11.47 -988.16 1262.18 -212.25 929.75 -213.34 1449.32 -608.2 754.16 -389.09 1075.38 -838.02 961.13 -1174.22 -6887.21 -3515.96 1.42 707.29z"/>
   <path class="fil3" d="M3560.29 12279.92l50.13 -461.66 -121.86 350.34 -1287.29 -171.57 -11.96 -979.71c1248.03,26.36 7310.28,1106.68 7856.3,898.45l-199.27 -53.4 -79.35 -74.07 -53.22 -2.51 -79.6 -76.08 -272.42 -134.16 -84.03 -77.5 -56.24 3.18c-107.63,-1.67 -83.61,27.29 -83.61,-74.99l-281.54 -132.23 -78.17 -75.83 -55.58 0c-104.61,1.76 -78.75,27.62 -78.75,-76.41l-278.7 -133.16 -79.01 -77.41 -51.89 -0.25c-106.12,-0.09 -81.26,27.45 -81.26,-75.66l-278.79 -132.32 -84.02 -75.24 -282.22 -130.56 -79.34 -75.24 -53.23 -2.52 -79.59 -75.07 -272.42 -135.08 -84.03 -77.5 -56.24 3.18c-107.63,-1.67 -83.61,27.2 -83.61,-75.07l-281.55 -131.07 -78.17 -76.99 -55.57 0c-104.62,1.75 -78.76,27.7 -78.76,-76.42l-283.47 -131.14 -78.17 -75.83 -51.89 -2.6c-102.44,-1.67 -77.33,24.61 -77.33,-76.91l-278.78 -132.23 -84.03 -75.25 -51.97 -0.25c-106.55,-0.08 -81.27,27.29 -81.27,-76.83l-148.89 -53.48 -79.43 -75.24 -53.22 -2.51 -79.6 -74.23 -73.56 -67.38 -64.03 -72.81 -1406.3 -744.96 -237.02 -44.27 -1310.97 3873.08 272 105.37 1422.79 212z"/>
   <path class="fil4" d="M3610.42 11818.26l29.88 -303.97c468.85,-101.44 5479.07,664.36 6437.28,761.02l-28.71 -340.88 -3.26 -18.66c-546.02,208.23 -6608.27,-872.09 -7856.3,-898.45l11.96 979.71 1287.29 171.57 121.86 -350.34z"/>
   <path class="fil5" d="M4883.82 8951.51l73.56 67.38 79.6 74.23 53.22 2.51c104.2,0.17 79.43,-26.61 79.43,75.24l148.89 53.48 81.27 76.83 51.97 0.25c108.55,0.17 84.03,-28.53 84.03,75.25l278.78 132.23 77.33 76.91 51.89 2.6c102.7,1.76 78.17,-24.94 78.17,75.83l283.47 131.14 78.76 76.42 55.57 0c103.2,1.84 78.17,-24.78 78.17,76.99l281.55 131.07 83.61 75.07 56.24 -3.18c111.14,-5.94 84.03,-32.72 84.03,77.5l272.42 135.08 79.59 75.07 53.23 2.52c104.11,0.25 79.34,-26.54 79.34,75.24l282.22 130.56c108.46,0.16 84.02,-28.46 84.02,75.24l278.79 132.32 81.26 75.66 51.89 0.25c104.62,0.16 79.01,-26.28 79.01,77.41l278.7 133.16 78.75 76.41 55.58 0c102.77,1.84 78.17,-24.94 78.17,75.83l281.54 132.23 83.61 74.99 56.24 -3.18c111.15,-5.86 84.03,-32.64 84.03,77.5l272.42 134.16 79.6 76.08 53.22 2.51c103.7,0.17 79.35,-26.7 79.35,74.07l199.27 53.4 3.26 18.66c136.93,147.22 94.66,108.22 92.82,352.27l105.87 -0.51 207.98 54.99 273.85 -2.09 272.59 81.35 284.13 -8.37 53.57 -10.3 -6321.2 -3653.63 -134.66 203.37z"/>
   <path class="fil2 str0" d="M14199.4 19015.06l-11.88 1059.48c376.45,-99.18 1209.78,-356.2 1449.9,-637.74l11.3 -1029.94 -1449.32 608.2z"/>
   <path class="fil1" d="M8660.99 20003.65c200.94,53.15 1213.89,300.54 1314.99,354.36 -6.61,-220.2 -0.17,-426 -0.17,-643.77 0,-323.98 27.7,-285.48 -152.07,-481.74l-1162.34 -318.7 -0.41 1089.85z"/>
   <path class="fil2 str0" d="M11996 20428.81c345.49,0 965.99,-1.42 1246.28,-141.69l27.37 -1058.72 -1262.18 212.25 -11.47 988.16z"/>
   <path class="fil6" d="M18525.35 16005.53c-31.81,271.84 -68.55,673.65 41.26,882.47 320.29,-635.74 527.69,-908.16 734.66,-1605.91 241.2,-813.09 257.44,-1255.49 257.44,-2172.85 -93.49,187.89 -295.1,1207.52 -428.18,1577.37 -139.93,389 -544.84,959.37 -605.18,1318.92z"/>
   <path class="fil1 str1" d="M6028.83 18515.58c258.27,241.46 744.7,660.26 1104.33,779.52l-45.44 -1040.31 -1133.8 -788.31c127.13,318.12 73.9,701.52 74.91,1049.1z"/>
   <path class="fil2 str0" d="M17478.26 17179.75l-31.14 981.56c435.88,-331.34 813,-813.59 1119.49,-1273.31 -109.81,-208.82 -73.07,-610.63 -41.26,-882.47l-85.96 0 -961.13 1174.22z"/>
   <path class="fil2 str0" d="M16402.88 18017.77l-15.23 1064.75c373.52,-294.6 762.53,-545.93 1059.47,-921.21l31.14 -981.56 -1075.38 838.02z"/>
   <path class="fil1 str1" d="M7743.45 19578.49c196.68,214.17 622.85,303.22 917.54,425.16l0.41 -1089.85 -927.49 -355.03 9.54 1019.72z"/>
   <polygon class="fil2 str0" points="13269.65,19228.4 13242.28,20287.12 14187.52,20074.54 14199.4,19015.06 "/>
   <path class="fil1" d="M4267.67 16318.96c133.49,346.83 622.76,1148.19 896.02,1346.38l-26.78 -989.59 -95 -206.47c-112.98,0 -84.78,29.37 -92.73,-78.84 -208.65,-308.75 -446.67,-840.37 -731.65,-1042.07l50.14 970.59z"/>
   <path class="fil1 str1" d="M9975.98 20358.01l814.25 70.8 -3.01 -923.47c-99.68,-167.72 -106.13,-125.79 -384.41,-182.45 -192.57,-39.25 -388,-65.7 -579.07,-90.39 179.77,196.26 152.07,157.76 152.07,481.74 0,217.77 -6.44,423.57 0.17,643.77z"/>
   <path class="fil1 str1" d="M5163.69 17665.34l865.14 850.24c-1.01,-347.58 52.22,-730.98 -74.91,-1049.1l-817.01 -790.73 26.78 989.59z"/>
   <path class="fil2 str0" d="M15648.72 18406.86l-11.3 1029.94c286.23,-59.59 455.38,-223.97 750.23,-354.28l15.23 -1064.75 -754.16 389.09z"/>
   <path class="fil1 str1" d="M4267.67 16318.96l-50.14 -970.59 35.07 -87.46c-100.68,0 -74.32,24.36 -72.48,-79.17l1.01 -64.03 -71.06 -77.08 -74.15 -268.66 -65.28 -88.13 -74.32 -271 -59.68 -102.02 -16.9 -167.22 -57.83 -105.7 -5.7 -128.39 -55.48 -101.68 -11.97 -251.84 -71.31 -150.9 -73.15 -358.21c0,675.91 11.22,1220.09 158.77,1837.91 103.11,431.94 261.37,1141.75 564.6,1434.17z"/>
   <polygon class="fil1 str1" points="7133.16,19295.1 7743.45,19578.49 7733.91,18558.77 7087.72,18254.79 "/>
   <path class="fil7" d="M11396.76 17734.64c143.28,-277.36 117.34,-1174.22 93.06,-1541.05 -113.9,229.74 -129.05,1232.64 -93.06,1541.05z"/>
   <path class="fil8" d="M11484.38 14365.89c120.27,-301.13 87.97,-812.24 69.22,-1169.03 -127.72,282.38 -105.71,830.33 -69.22,1169.03z"/>
   <path class="fil9" d="M10077.58 12275.31l64.11 11.39c1.84,-244.05 44.11,-205.05 -92.82,-352.27l28.71 340.88z"/>
   <path class="fil10" d="M4252.6 15260.91c0,-102.86 26.87,-79.17 -72.48,-79.17 -1.84,103.53 -28.2,79.17 72.48,79.17z"/>
   <path class="fil11" d="M7023.36 10229.26c0,-110.22 27.11,-83.44 -84.03,-77.5l84.03 77.5z"/>
   <path class="fil11" d="M9361.75 11575.55c0,-110.14 27.12,-83.36 -84.03,-77.5l84.03 77.5z"/>
   <path class="fil12" d="M5041.91 16469.28l-92.73 -78.84c7.95,108.21 -20.25,78.84 92.73,78.84z"/>
   <polygon class="fil13" points="11552.18,12489.57 11339.68,12401.77 11286.11,12412.07 "/>
   <path class="fil9" d="M5535.79 9376.68c0,-103.78 24.52,-75.08 -84.03,-75.25l84.03 75.25z"/>
   <path class="fil9" d="M7874.18 10722.97c0,-103.7 24.44,-75.08 -84.02,-75.24l84.02 75.24z"/>
   <path class="fil14" d="M5399.79 9301.18l-81.27 -76.83c0,104.12 -25.28,76.75 81.27,76.83z"/>
   <path class="fil15" d="M6883.09 10154.94l-83.61 -75.07c0,102.27 -24.02,73.4 83.61,75.07z"/>
   <path class="fil15" d="M9221.48 11501.23l-83.61 -74.99c0,102.28 -24.02,73.32 83.61,74.99z"/>
   <path class="fil14" d="M8234.23 10930.95l-81.26 -75.66c0,103.11 -24.86,75.57 81.26,75.66z"/>
   <path class="fil14" d="M6384.19 9871.81l-78.76 -76.42c0,104.12 -25.86,78.17 78.76,76.42z"/>
   <path class="fil14" d="M8722.58 11218.18l-78.75 -76.41c0,104.03 -25.86,78.17 78.75,76.41z"/>
   <path class="fil9" d="M8365.13 11008.61c0,-103.69 25.61,-77.25 -79.01,-77.41l79.01 77.41z"/>
   <path class="fil11" d="M5169.63 9170.87c0,-101.85 24.77,-75.07 -79.43,-75.24l79.43 75.24z"/>
   <path class="fil11" d="M7507.94 10517.17c0,-101.78 24.77,-74.99 -79.34,-75.24l79.34 75.24z"/>
   <path class="fil9" d="M6517.93 9948.8c0,-101.77 25.03,-75.15 -78.17,-76.99l78.17 76.99z"/>
   <path class="fil11" d="M9846.34 11862.37c0,-100.77 24.35,-73.9 -79.35,-74.07l79.35 74.07z"/>
   <path class="fil14" d="M5891.9 9585.82l-77.33 -76.91c0,101.52 -25.11,75.24 77.33,76.91z"/>
   <path class="fil9" d="M6021.96 9664.25c0,-100.77 24.53,-74.07 -78.17,-75.83l78.17 75.83z"/>
   <path class="fil9" d="M8856.33 11294.01c0,-100.77 24.6,-73.99 -78.17,-75.83l78.17 75.83z"/>
   <polygon class="fil16" points="3756.21,13909.51 3700.73,13807.83 "/>
   <polygon class="fil17" points="3819.74,14143.6 3761.91,14037.9 "/>
   <polygon class="fil13" points="11001.98,12420.44 10729.39,12339.09 "/>
   <polygon class="fil18" points="10455.54,12341.18 10247.56,12286.19 "/>
   <polygon class="fil19" points="3896.32,14412.84 3836.64,14310.82 "/>
   <polygon class="fil20" points="3688.76,13555.99 3617.45,13405.09 "/>
   <polygon class="fil21" points="4035.92,14771.97 3970.64,14683.84 "/>
   <polygon class="fil22" points="4181.13,15117.71 4110.07,15040.63 "/>
   <polygon class="fil23" points="9713.77,11785.79 9634.17,11709.71 "/>
   <polygon class="fil23" points="5036.98,9093.12 4957.38,9018.89 "/>
   <polygon class="fil23" points="7375.37,10439.41 7295.78,10364.34 "/>
   <path class="fil24 str2" d="M18525.35 16005.53c-1273.65,1909.72 -4331.89,3539.31 -7115.54,3424.65"/>
   <path class="fil24 str3" d="M11409.81 19430.18c-6771.3,-168.64 -8259.37,-5483.17 -7769.51,-7915.89"/>
  </g>
 </g>
</svg>
