<?xml version="1.0" encoding="UTF-8" standalone="no"?><!DOCTYPE svg PUBLIC "-//W3C//DTD SVG 1.1//EN" "http://www.w3.org/Graphics/SVG/1.1/DTD/svg11.dtd"><svg width="100%" height="100%" viewBox="0 0 1024 1024" version="1.1" xmlns="http://www.w3.org/2000/svg" xmlns:xlink="http://www.w3.org/1999/xlink" xml:space="preserve" xmlns:serif="http://www.serif.com/" style="fill-rule:evenodd;clip-rule:evenodd;stroke-linejoin:round;stroke-miterlimit:2;"><path d="M796.2,739.267c-0,-39.596 -32.148,-71.744 -71.744,-71.744l-135.875,-27.772l0,-83.316l-154.073,0l-0,83.316l-134.964,27.772c-39.596,0 -71.744,32.148 -71.744,71.744l0,143.489c0,39.596 32.148,71.744 71.744,71.744l424.912,-0c39.596,-0 71.744,-32.148 71.744,-71.744l-0,-143.489Z" style="fill:#53383f;"/><clipPath id="_clip1"><path d="M796.2,739.267c-0,-39.596 -32.148,-71.744 -71.744,-71.744l-135.875,-27.772l0,-83.316l-154.073,0l-0,83.316l-134.964,27.772c-39.596,0 -71.744,32.148 -71.744,71.744l0,143.489c0,39.596 32.148,71.744 71.744,71.744l424.912,-0c39.596,-0 71.744,-32.148 71.744,-71.744l-0,-143.489Z"/></clipPath><g clip-path="url(#_clip1)"><ellipse cx="512" cy="355.216" rx="211.993" ry="262.908" style="fill:#3b1b24;"/></g><path d="M512,69.5c115.469,0 209.215,99.29 209.215,244.393c0,145.103 -93.746,281.423 -209.215,281.423c-115.469,-0 -209.215,-136.32 -209.215,-281.423c-0,-145.103 93.746,-244.393 209.215,-244.393Z" style="fill:#533840;"/><g><circle cx="512" cy="808.234" r="66.486" style="fill:#431d28;"/><circle cx="534.866" cy="790.997" r="17.237" style="fill:#eb0031;"/><path d="M498.632,724.862l0,-8.794c0,-7.377 5.99,-13.367 13.368,-13.367c7.378,-0 13.368,5.99 13.368,13.367l-0,8.794c13.335,2.125 25.634,7.377 36.119,14.981l16.182,-16.182c5.216,-5.217 13.687,-5.217 18.904,0c5.217,5.217 5.217,13.688 0,18.905l-16.182,16.182c7.603,10.483 12.857,22.782 14.981,36.119l8.794,-0c7.378,-0 13.367,5.99 13.367,13.367c0,7.378 -5.989,13.368 -13.367,13.368l-8.794,-0c-2.124,13.336 -7.377,25.635 -14.981,36.119l16.182,16.182c5.217,5.217 5.217,13.688 0,18.905c-5.217,5.216 -13.688,5.216 -18.904,-0l-16.182,-16.182c-10.483,7.603 -22.783,12.856 -36.119,14.981l-0,8.793c-0,7.378 -5.99,13.368 -13.368,13.368c-7.378,-0 -13.368,-5.99 -13.368,-13.368l0,-8.793c-13.335,-2.125 -25.634,-7.378 -36.119,-14.981l-16.182,16.182c-5.216,5.216 -13.687,5.216 -18.904,-0c-5.217,-5.217 -5.217,-13.688 -0,-18.905l16.182,-16.182c-7.603,-10.483 -12.857,-22.783 -14.981,-36.119l-8.794,-0c-7.378,-0 -13.367,-5.99 -13.367,-13.368c-0,-7.377 5.989,-13.367 13.367,-13.367l8.794,-0c2.124,-13.336 7.377,-25.635 14.981,-36.119l-16.182,-16.182c-5.217,-5.217 -5.217,-13.688 -0,-18.905c5.217,-5.217 13.688,-5.217 18.904,0l16.182,16.182c10.483,-7.603 22.783,-12.856 36.119,-14.981Zm13.368,27.088c31.064,-0 56.285,25.22 56.285,56.284c-0,31.065 -25.221,56.285 -56.285,56.285c-31.064,-0 -56.285,-25.22 -56.285,-56.285c0,-31.064 25.221,-56.284 56.285,-56.284Z" style="fill:#eb0031;"/><circle cx="487.376" cy="800.495" r="13.368" style="fill:#eb0031;"/><circle cx="525.368" cy="839.894" r="13.368" style="fill:#eb0031;"/></g><path d="M411.831,281.747c-0,-12.688 4.073,-25.543 12.221,-38.565c8.147,-13.022 20.033,-23.807 35.66,-32.354c15.626,-8.548 33.857,-12.822 54.692,-12.822c19.366,0 36.462,3.573 51.287,10.718c14.825,7.146 26.277,16.862 34.358,29.149c8.08,12.288 12.12,25.644 12.12,40.068c0,11.352 -2.304,21.303 -6.912,29.85c-4.607,8.548 -10.083,15.927 -16.427,22.138c-6.344,6.21 -17.73,16.661 -34.158,31.353c-4.541,4.14 -8.18,7.779 -10.918,10.918c-2.738,3.139 -4.775,6.01 -6.111,8.615c-1.335,2.604 -2.37,5.208 -3.105,7.813c-0.735,2.604 -1.836,7.179 -3.306,13.723c-2.537,13.89 -10.484,20.835 -23.84,20.835c-6.945,0 -12.788,-2.27 -17.529,-6.811c-4.742,-4.541 -7.112,-11.286 -7.112,-20.235c-0,-11.219 1.736,-20.935 5.208,-29.149c3.473,-8.214 8.081,-15.426 13.824,-21.636c5.743,-6.211 13.489,-13.59 23.239,-22.138c8.548,-7.479 14.725,-13.122 18.531,-16.928c3.807,-3.807 7.012,-8.047 9.616,-12.722c2.605,-4.674 3.907,-9.749 3.907,-15.225c0,-10.685 -3.973,-19.7 -11.92,-27.046c-7.947,-7.346 -18.197,-11.019 -30.752,-11.019c-14.691,0 -25.51,3.707 -32.455,11.119c-6.945,7.413 -12.821,18.331 -17.629,32.755c-4.541,15.093 -13.156,22.639 -25.844,22.639c-7.479,-0 -13.79,-2.638 -18.932,-7.914c-5.142,-5.275 -7.713,-10.985 -7.713,-17.129Zm97.765,219.571c-8.147,-0 -15.259,-2.638 -21.336,-7.913c-6.077,-5.276 -9.115,-12.655 -9.115,-22.138c-0,-8.414 2.938,-15.493 8.814,-21.236c5.877,-5.743 13.089,-8.614 21.637,-8.614c8.414,-0 15.493,2.871 21.236,8.614c5.743,5.743 8.614,12.822 8.614,21.236c0,9.349 -3.005,16.695 -9.015,22.037c-6.01,5.343 -12.955,8.014 -20.835,8.014Z" style="fill:#fff;fill-rule:nonzero;"/></svg>